<svg xmlns="http://www.w3.org/2000/svg" viewBox="0 0 569.8 462.53"><defs><style>.cls-1{fill:#fff;stroke:#b1b3b4;stroke-miterlimit:10;stroke-width:3.79px;}</style></defs><g id="Layer_2" data-name="Layer 2"><g id="Layer_1-2" data-name="Layer 1"><polygon class="cls-1" points="55.96 155.23 55.68 156.84 96.42 176.92 96.76 177.05 90.15 178.22 83.31 217.01 65.37 220.17 72.14 181.78 50.61 185.58 39.8 246.88 100.8 236.12 114.09 160.75 114.34 159.35 114.48 158.54 79.3 141.19 84.86 109.63 102.8 106.47 98.23 132.39 119.76 128.6 128.37 79.76 67.37 90.52 55.96 155.23"/><polygon class="cls-1" points="135.66 100.67 155.31 97.21 131.77 230.66 153.3 226.86 176.84 93.41 196.66 89.92 200.71 67.01 139.7 77.76 135.66 100.67"/><polygon class="cls-1" points="201.4 134.65 186.16 221.07 247.17 210.31 254.36 169.51 235.13 160.25 234.78 162.26 229.85 190.19 229.68 191.2 211.74 194.36 221.23 140.5 240.76 150.1 245.16 125.18 225.63 115.58 231.23 83.82 249.17 80.66 244.67 106.18 266.2 102.39 274.74 53.95 213.73 64.71 206.43 106.11 201.53 103.86 197.13 128.78 207.07 133.65 201.4 134.65"/><path class="cls-1" d="M275.43,121.59,260.19,208l21.54-3.8,13.5-76.57L330.41,145,348.77,40.9l-61,10.75-7.3,41.4-4.91-2.24-4.4,24.92,9.94,4.86Zm29.83-50.82,17.94-3.16-7.55,42.8-16-7.89Z"/><polygon class="cls-1" points="421.1 28.12 399.57 31.92 388.02 97.44 372.04 89.57 381.65 35.08 360.12 38.87 332.55 195.24 354.08 191.44 367.62 114.67 383.59 122.58 389.17 125.28 389.51 125.43 382.88 126.6 362.75 240.76 356.68 237.8 352.29 262.73 364.12 268.47 357.66 269.61 334.53 400.77 356.06 396.97 377.58 274.97 381.44 276.84 385.83 251.92 381.97 250.05 421.1 28.12"/><polygon class="cls-1" points="406.56 182.21 467.56 171.45 474.76 130.65 455.53 121.39 450.07 152.34 432.13 155.5 441.63 101.64 461.16 111.24 465.56 86.32 446.02 76.72 451.62 44.96 469.56 41.8 465.06 67.32 486.59 63.52 495.13 15.09 434.13 25.85 426.83 67.25 421.92 65 417.53 89.92 427.47 94.79 421.8 95.79 406.56 182.21"/><polygon class="cls-1" points="545.93 6.13 541.65 30.45 506.46 13.09 478.89 169.45 500.42 165.66 521.26 47.48 543.15 58.23 536.54 59.39 518.36 162.49 539.9 158.7 567.47 2.34 545.93 6.13"/><polygon class="cls-1" points="65.25 270.69 64.75 270.38 37.98 257.19 37.59 259.4 2.34 459.35 23.86 455.55 52.78 291.58 60.66 295.64 60.85 295.61 70.68 288.61 41.81 452.38 63.34 448.59 98.95 246.63 65.69 270.21 65.25 270.69"/><polygon class="cls-1" points="119.18 400.64 111.27 396.78 111.3 396.58 111.08 396.81 101.24 403.81 129.96 240.97 108.43 244.77 72.78 446.92 106.27 422 106.87 421.7 107.21 421.84 133.69 436.7 169.43 234.01 147.9 237.81 119.18 400.64"/><polygon class="cls-1" points="205.88 227.58 184.34 231.38 177.08 272.58 172.17 270.33 167.78 295.25 172.65 297.7 172.62 297.9 178.52 300.76 172.1 301.89 148.7 433.54 170.23 429.74 191.88 306.97 196.94 309.39 201.34 284.47 196.27 282.05 205.88 227.58"/><polygon class="cls-1" points="257.58 242.03 222.4 224.67 186.75 426.83 208.28 423.03 237.2 259.06 259.09 269.8 252.48 270.97 226.22 419.87 247.76 416.07 283.4 213.91 261.87 217.71 257.58 242.03"/><polygon class="cls-1" points="311.44 293.68 321.38 298.55 315.71 299.55 292.64 430.36 274.89 433.49 310.54 231.33 328.48 228.16 323.98 253.69 345.32 249.93 353.86 201.49 293.05 212.21 249.32 460.19 310.14 449.47 335.35 305.43 340.91 308.15 345.31 283.23 315.83 268.75 311.44 293.68"/><path class="cls-1" d="M371.62,394.23l21.53-3.8,21.61-122.57,16,7.9,5.56,2.71.35.14L430,279.77l-19,107.5,21.53-3.8,21.93-124.38-9.25-4.6,11.49-8.06,11.48-65.11-61,10.75Zm53.13-183L442.7,208l-7.52,42.61-16-7.89Z"/><path class="cls-1" d="M441.43,381.92l21.53-3.8,21.61-122.57,16,7.9,5.55,2.72.35.13-6.61,1.16L480.9,375l21.53-3.8L538.08,169l-61,10.75Zm53.14-183,17.94-3.17L505,238.32l-16-7.89Z"/></g></g></svg>